<?xml version="1.0" standalone="no"?><!DOCTYPE svg PUBLIC "-//W3C//DTD SVG 1.1//EN" "http://www.w3.org/Graphics/SVG/1.1/DTD/svg11.dtd"><svg t="1647520615718" class="icon" viewBox="0 0 1025 1024" version="1.1" xmlns="http://www.w3.org/2000/svg" p-id="12720" xmlns:xlink="http://www.w3.org/1999/xlink" width="48.046875" height="48"><defs><style type="text/css"></style></defs><path d="M978.823529 843.294118 873.411765 843.294118 873.411765 978.823529C873.411765 1003.760941 853.172706 1024 828.235294 1024 803.297882 1024 783.058824 1003.760941 783.058824 978.823529L783.058824 843.294118 677.647059 843.294118C652.709647 843.294118 632.470588 823.055059 632.470588 798.117647 632.470588 773.150118 652.709647 752.941176 677.647059 752.941176L783.058824 752.941176 783.058824 647.529412C783.058824 622.561882 803.297882 602.352941 828.235294 602.352941 853.172706 602.352941 873.411765 622.561882 873.411765 647.529412L873.411765 752.941176 978.823529 752.941176C1003.760941 752.941176 1024 773.150118 1024 798.117647 1024 823.055059 1003.760941 843.294118 978.823529 843.294118ZM647.529412 692.705882 225.882353 692.705882C200.944941 692.705882 180.705882 672.466824 180.705882 647.529412 180.705882 622.561882 200.944941 602.352941 225.882353 602.352941L647.529412 602.352941C672.466824 602.352941 692.705882 622.561882 692.705882 647.529412 692.705882 672.466824 672.466824 692.705882 647.529412 692.705882ZM647.529412 331.294118 225.882353 331.294118C200.944941 331.294118 180.705882 311.055059 180.705882 286.117647 180.705882 261.150118 200.944941 240.911059 225.882353 240.911059L647.529412 240.911059C672.466824 240.911059 692.705882 261.150118 692.705882 286.117647 692.705882 311.055059 672.466824 331.294118 647.529412 331.294118ZM647.529412 512 225.882353 512C200.944941 512 180.705882 491.760941 180.705882 466.823529 180.705882 441.856 200.944941 421.647059 225.882353 421.647059L647.529412 421.647059C672.466824 421.647059 692.705882 441.856 692.705882 466.823529 692.705882 491.760941 672.466824 512 647.529412 512ZM828.235294 542.117647C803.297882 542.117647 783.058824 521.878588 783.058824 496.911059L783.058824 90.352941 90.352941 90.352941 90.352941 903.529412 647.529412 903.529412C672.466824 903.529412 692.705882 923.738353 692.705882 948.705882 692.705882 973.643294 672.466824 993.882353 647.529412 993.882353L45.176471 993.882353C20.239059 993.882353 0 973.643294 0 948.705882L0 45.176471C0 20.239059 20.239059 0 45.176471 0L828.235294 0C853.172706 0 873.411765 20.239059 873.411765 45.176471L873.411765 496.911059C873.411765 521.878588 853.172706 542.117647 828.235294 542.117647Z" p-id="12721"></path></svg>