<?xml version="1.0" standalone="no"?><!DOCTYPE svg PUBLIC "-//W3C//DTD SVG 1.1//EN" "http://www.w3.org/Graphics/SVG/1.1/DTD/svg11.dtd"><svg t="1669559620838" class="icon" viewBox="0 0 1026 1024" version="1.1" xmlns="http://www.w3.org/2000/svg" p-id="2802" xmlns:xlink="http://www.w3.org/1999/xlink" width="200.390625" height="200"><path d="M951.35678 580.579763 655.616957 580.579763c-40.751562 0-73.835207 33.084645-73.835207 73.834207l0 295.741823c0 40.749562 33.083645 73.833207 73.835207 73.833207l295.739823 0c40.751562 0 73.834207-33.083645 73.834207-73.833207L1025.190987 654.41397C1025.190987 613.664408 992.108343 580.579763 951.35678 580.579763zM955.391737 913.439188c0 20.576779-20.576779 41.153558-41.153558 41.153558L692.735559 954.592746c-20.173783 0-41.152558-20.576779-41.152558-41.153558L651.583001 691.533571c0-20.174783 20.574779-41.153558 41.152558-41.153558l221.906616 0c20.172783 0 41.153558 20.576779 41.153558 41.153558l0 221.905616L955.391737 913.439188z" p-id="2803"></path><path d="M951.154783 1.604983 655.414959 1.604983c-40.751562 0-73.835207 33.084645-73.835207 73.834207l0 295.740823c0 40.749562 33.083645 73.834207 73.835207 73.834207l295.739823 0c40.751562 0 73.834207-33.084645 73.834207-73.834207L1024.988989 75.43919C1024.988989 34.690627 991.906345 1.604983 951.154783 1.604983zM955.189739 334.061411c0 20.578779-20.576779 41.153558-41.153558 41.153558L692.533561 375.214969c-20.173783 0-41.152558-20.575779-41.152558-41.151558L651.381003 112.559791c0-20.576779 20.574779-41.153558 41.152558-41.153558L914.440177 71.406233c20.172783 0 41.153558 20.576779 41.153558 41.153558l0 221.501621L955.189739 334.061411z" p-id="2804"></path><path d="M371.979004 580.579763 76.237181 580.579763c-40.749562 0-73.833207 33.084645-73.833207 73.834207l0 295.741823c0 40.749562 33.083645 73.833207 73.833207 73.833207l295.741823 0c40.749562 0 73.834207-33.083645 73.834207-73.833207L445.813211 654.41397C446.217207 613.664408 413.132562 580.579763 371.979004 580.579763zM335.264399 954.19075 113.759778 954.19075c-20.575779 0-41.152558-20.577779-41.152558-41.153558l0-221.907616c0-20.172783 20.576779-41.153558 41.152558-41.153558l221.503621 0c20.576779 0 41.153558 20.577779 41.153558 41.153558l0 221.907616C376.417956 933.612971 355.840177 954.19075 335.264399 954.19075z" p-id="2805"></path><path d="M11.689874 39.873572C5.524941 50.656456 1.999979 63.140322 1.999979 76.439179l0 295.740823c0 40.749562 33.083645 73.834207 73.833207 73.834207l295.741823 0c40.749562 0 73.834207-33.084645 73.834207-73.834207L445.409215 76.439179c0.403996-40.749562-32.680649-73.834207-73.834207-73.834207L75.833185 2.604972C48.38348 2.604972 24.412738 17.616811 11.689874 39.873572M334.859403 375.812963 113.355782 375.812963c-20.575779 0-41.152558-20.578779-41.152558-41.153558L72.203224 113.154784c0-20.576779 20.576779-41.152558 41.152558-41.152558l221.503621 0c20.576779 0 41.153558 20.576779 41.153558 41.152558l0 221.504621C376.013961 355.234184 355.436182 375.812963 334.859403 375.812963z" p-id="2806"></path><path d="M371.979004 112.154795" p-id="2807"></path></svg>