<?xml version="1.0" standalone="no"?><!DOCTYPE svg PUBLIC "-//W3C//DTD SVG 1.1//EN" "http://www.w3.org/Graphics/SVG/1.1/DTD/svg11.dtd"><svg t="1669898774764" class="icon" viewBox="0 0 1024 1024" version="1.1" xmlns="http://www.w3.org/2000/svg" p-id="5141" xmlns:xlink="http://www.w3.org/1999/xlink" width="200" height="200"><path d="M819.2 153.6h-102.4a102.4 102.4 0 0 0-102.4-102.4H409.6a102.4 102.4 0 0 0-102.4 102.4H204.8a102.4 102.4 0 0 0-102.4 102.4v614.4a102.4 102.4 0 0 0 102.4 102.4h614.4a102.4 102.4 0 0 0 102.4-102.4V256a102.4 102.4 0 0 0-102.4-102.4zM409.6 153.6h204.8v102.4H409.6z m409.6 716.8H204.8V256h102.4a102.4 102.4 0 0 0 102.4 102.4h204.8a102.4 102.4 0 0 0 102.4-102.4h102.4z m-153.6-409.6H358.4a51.2 51.2 0 0 0 0 102.4h307.2a51.2 51.2 0 0 0 0-102.4z m-102.4 153.6H358.4a51.2 51.2 0 0 0 0 102.4h204.8a51.2 51.2 0 0 0 0-102.4z" fill="#6e4175" p-id="5142"></path></svg>