<?xml version="1.0" standalone="no"?><!DOCTYPE svg PUBLIC "-//W3C//DTD SVG 1.1//EN" "http://www.w3.org/Graphics/SVG/1.1/DTD/svg11.dtd"><svg t="1647593854988" class="icon" viewBox="0 0 1024 1024" version="1.1" xmlns="http://www.w3.org/2000/svg" p-id="1270" width="128" height="128" xmlns:xlink="http://www.w3.org/1999/xlink"><defs><style type="text/css"></style></defs><path d="M1024 118.153846H0V78.651077C0 35.209846 35.249231 0 78.651077 0h866.697846C988.790154 0 1024 35.249231 1024 78.651077V118.153846z m0 78.769231v748.425846A78.690462 78.690462 0 0 1 945.348923 1024H78.651077A78.690462 78.690462 0 0 1 0 945.348923V196.923077h1024z m-610.461538 236.307692a59.076923 59.076923 0 0 0 0 118.153846h433.230769a59.076923 59.076923 0 0 0 0-118.153846h-433.230769z m-236.307693 0a59.076923 59.076923 0 0 0 0 118.153846h39.384616a59.076923 59.076923 0 0 0 0-118.153846h-39.384616z m236.307693 236.307693a59.076923 59.076923 0 0 0 0 118.153846h433.230769a59.076923 59.076923 0 0 0 0-118.153846h-433.230769z m-236.307693 0a59.076923 59.076923 0 0 0 0 118.153846h39.384616a59.076923 59.076923 0 0 0 0-118.153846h-39.384616z" fill="#6e4175" p-id="1271"></path></svg>