<?xml version="1.0" standalone="no"?><!DOCTYPE svg PUBLIC "-//W3C//DTD SVG 1.1//EN" "http://www.w3.org/Graphics/SVG/1.1/DTD/svg11.dtd"><svg t="1647522261701" class="icon" viewBox="0 0 1024 1024" version="1.1" xmlns="http://www.w3.org/2000/svg" p-id="19203" xmlns:xlink="http://www.w3.org/1999/xlink" width="48" height="48"><defs><style type="text/css"></style></defs><path d="M509.9008 510.72m-450.816 0a450.816 450.816 0 1 0 901.632 0 450.816 450.816 0 1 0-901.632 0Z" fill="#6e4175" p-id="19204"></path><path d="M664.7296 327.936c-12.288 0-22.2208-9.9328-22.2208-22.2208V227.2256c0-12.288 9.9328-22.2208 22.2208-22.2208s22.2208 9.9328 22.2208 22.2208v78.5408c0 12.2368-9.9328 22.1696-22.2208 22.1696z" fill="#FFFFFF" p-id="19205"></path><path d="M716.1344 245.4528v60.2624c0 25.5488-25.9072 46.336-51.4048 46.336-25.5488 0-51.4048-20.7872-51.4048-46.336V245.1968H424.2432v60.5696c0 25.5488-25.9072 46.336-51.4048 46.336-25.5488 0-51.4048-20.7872-51.4048-46.336V245.248c-48.4352 1.9456-87.0912 41.8304-87.0912 90.7264v71.168h565.5552v-71.168c0-47.7696-36.9152-86.8864-83.7632-90.5216z" fill="#FFFFFF" p-id="19206"></path><path d="M372.8384 327.936c-12.288 0-22.2208-9.9328-22.2208-22.2208V227.2256c0-12.288 9.9328-22.2208 22.2208-22.2208s22.2208 9.9328 22.2208 22.2208v78.5408c0 12.2368-9.9328 22.1696-22.2208 22.1696zM234.3424 452.5568v237.7216c0 50.176 40.6528 90.8288 90.8288 90.8288h383.9488c50.176 0 90.8288-40.6528 90.8288-90.8288V452.5568H234.3424z m159.232 265.5232H312.5248v-81.0496h81.0496v81.0496z m0-133.9904H312.5248V503.04h81.0496v81.0496z m164.096 133.9904H476.6208v-81.0496h81.0496v81.0496z m0-133.9904H476.6208V503.04h81.0496v81.0496z m164.0448 133.9904h-81.0496v-81.0496h81.0496v81.0496z m0-133.9904h-81.0496V503.04h81.0496v81.0496z" fill="#FFFFFF" p-id="19207"></path></svg>