<?xml version="1.0" standalone="no"?><!DOCTYPE svg PUBLIC "-//W3C//DTD SVG 1.1//EN" "http://www.w3.org/Graphics/SVG/1.1/DTD/svg11.dtd"><svg t="1669898431508" class="icon" viewBox="0 0 1024 1024" version="1.1" xmlns="http://www.w3.org/2000/svg" p-id="3468" xmlns:xlink="http://www.w3.org/1999/xlink" width="200" height="200"><path d="M102.538283 0h409.333933a102.333483 102.333483 0 0 1 102.333483 102.333483v818.667866a102.333483 102.333483 0 0 1-102.333483 102.333483H102.538283a102.333483 102.333483 0 0 1-102.333483-102.333483V102.333483a102.333483 102.333483 0 0 1 102.333483-102.333483z m204.666967 511.667416a153.500225 153.500225 0 1 0 0-307.00045 153.500225 153.500225 0 0 0 0 307.00045z m-153.500225 204.666967v102.333483h307.00045v-102.333483H153.705025z m715.925049-470.734023l-171.766752-117.069505 86.471793-126.893519L967.256217 126.381852a127.916854 127.916854 0 0 1 55.874081 105.710488V792.06116a127.916854 127.916854 0 0 1-55.157747 105.249988l-183.176935 126.688852-87.341628-126.279518 172.176086-119.065008V245.60036z" p-id="3469" fill="#6e4175"></path></svg>