<?xml version="1.0" standalone="no"?><!DOCTYPE svg PUBLIC "-//W3C//DTD SVG 1.1//EN" "http://www.w3.org/Graphics/SVG/1.1/DTD/svg11.dtd"><svg t="1669898675553" class="icon" viewBox="0 0 1024 1024" version="1.1" xmlns="http://www.w3.org/2000/svg" p-id="4574" xmlns:xlink="http://www.w3.org/1999/xlink" width="200" height="200"><path d="M465.682286 835.437714c26.148571 0 47.36 16.384 47.36 36.571429s-21.211429 36.571429-47.36 36.571428H175.378286c-26.148571 0-47.378286-16.384-47.378286-36.571428s21.211429-36.571429 47.36-36.571429h290.322286z m-10.422857-717.604571a264.96 264.96 0 0 1 129.554285-0.164572c140.617143 35.053714 226.486857 175.981714 191.908572 314.660572a255.049143 255.049143 0 0 1-35.766857 80.768l-6.217143 8.850286 148.425143 243.492571a91.556571 91.556571 0 0 1-27.428572 122.587429l-4.553143 2.870857-3.547428 2.102857a94.354286 94.354286 0 0 1-125.001143-27.373714l-2.944-4.534858-145.115429-237.897142c-38.070857 7.442286-77.330286 6.4-114.962285-3.035429-140.617143-35.072-226.486857-175.981714-191.908572-314.697143a254.793143 254.793143 0 0 1 54.308572-105.142857l6.692571-7.424 109.458286 179.456a25.856 25.856 0 0 0 32.347428 10.24l2.889143-1.444571 83.145143-49.206858a25.106286 25.106286 0 0 0 9.728-31.707428l-1.481143-2.779429-109.531428-179.620571z m-28.672 598.857143c26.148571 0 47.378286 16.365714 47.378285 36.571428 0 20.169143-21.211429 36.571429-47.36 36.571429H175.36c-26.148571 0-47.36-16.402286-47.36-36.571429 0-20.205714 21.211429-36.571429 47.36-36.571428h251.245714z m-146.322286-118.765715c28.013714 0 50.761143 16.384 50.761143 36.571429s-22.747429 36.571429-50.761143 36.571429H178.742857c-28.013714 0-50.742857-16.384-50.742857-36.571429s22.729143-36.571429 50.779429-36.571429h101.485714z" p-id="4575" fill="#6e4175"></path></svg>