<?xml version="1.0" standalone="no"?><!DOCTYPE svg PUBLIC "-//W3C//DTD SVG 1.1//EN" "http://www.w3.org/Graphics/SVG/1.1/DTD/svg11.dtd"><svg t="1652072325319" class="icon" viewBox="0 0 1024 1024" version="1.1" xmlns="http://www.w3.org/2000/svg" p-id="4698" xmlns:xlink="http://www.w3.org/1999/xlink" width="128" height="128"><defs><style type="text/css">@font-face { font-family: feedback-iconfont; src: url("//at.alicdn.com/t/font_1031158_u69w8yhxdu.woff2?t=1630033759944") format("woff2"), url("//at.alicdn.com/t/font_1031158_u69w8yhxdu.woff?t=1630033759944") format("woff"), url("//at.alicdn.com/t/font_1031158_u69w8yhxdu.ttf?t=1630033759944") format("truetype"); }
</style></defs><path d="M164.829 145.687c11.72-11.634 30.662-11.575 42.309 0.132L575.35 515.934l0.552 0.57c11.04 11.69 10.856 30.094-0.552 41.562L207.138 928.181l-0.56 0.549c-11.687 11.157-30.216 11.032-41.75-0.417l-0.549-0.56c-11.17-11.674-11.044-30.183 0.418-41.704L511.95 537 164.697 187.951l-0.546-0.563c-11.096-11.743-10.856-30.25 0.678-41.7z m266.953 0c11.72-11.634 30.662-11.575 42.31 0.132l368.211 370.115 0.552 0.57c11.04 11.69 10.857 30.094-0.552 41.562L474.091 928.181l-0.56 0.549c-11.686 11.157-30.215 11.032-41.749-0.417l-0.55-0.56c-11.168-11.674-11.044-30.183 0.418-41.704l347.254-349.047-347.254-349.05-0.545-0.564c-11.097-11.743-10.857-30.25 0.677-41.7z" fill="#6e4175" p-id="4699"></path></svg>