<?xml version="1.0" standalone="no"?><!DOCTYPE svg PUBLIC "-//W3C//DTD SVG 1.1//EN" "http://www.w3.org/Graphics/SVG/1.1/DTD/svg11.dtd"><svg t="1652068640403" class="icon" viewBox="0 0 1024 1024" version="1.1" xmlns="http://www.w3.org/2000/svg" p-id="4452" xmlns:xlink="http://www.w3.org/1999/xlink" width="128" height="128"><defs><style type="text/css">@font-face { font-family: feedback-iconfont; src: url("//at.alicdn.com/t/font_1031158_u69w8yhxdu.woff2?t=1630033759944") format("woff2"), url("//at.alicdn.com/t/font_1031158_u69w8yhxdu.woff?t=1630033759944") format("woff"), url("//at.alicdn.com/t/font_1031158_u69w8yhxdu.ttf?t=1630033759944") format("truetype"); }
</style></defs><path d="M155.733333 806.4H149.333333c-8.533333-2.133333-14.933333-12.8-14.933333-21.333333 0-4.266667 27.733333-362.666667 420.266667-396.8V177.066667c0-8.533333 4.266667-17.066667 12.8-19.2 8.533333-4.266667 17.066667-2.133333 23.466666 4.266666L896 465.066667c8.533333 8.533333 8.533333 21.333333 0 29.866666L590.933333 800c-6.4 6.4-14.933333 8.533333-23.466666 4.266667-8.533333-4.266667-12.8-10.666667-12.8-19.2v-206.933334c-70.4 8.533333-290.133333 51.2-381.866667 215.466667-2.133333 8.533333-10.666667 12.8-17.066667 12.8zM576 533.333333c6.4 0 10.666667 2.133333 14.933333 6.4 4.266667 4.266667 6.4 10.666667 6.4 14.933334v179.2l251.733334-251.733334L597.333333 228.266667V405.333333c0 10.666667-8.533333 21.333333-19.2 21.333334-249.6 14.933333-345.6 164.266667-379.733333 266.666666C337.066667 550.4 563.2 533.333333 576 533.333333z m0-128z" p-id="4453" fill="#88147f"></path></svg>