<?xml version="1.0" standalone="no"?><!DOCTYPE svg PUBLIC "-//W3C//DTD SVG 1.1//EN" "http://www.w3.org/Graphics/SVG/1.1/DTD/svg11.dtd"><svg t="1669898338958" class="icon" viewBox="0 0 1024 1024" version="1.1" xmlns="http://www.w3.org/2000/svg" p-id="1964" xmlns:xlink="http://www.w3.org/1999/xlink" width="200" height="200"><path d="M197.12 465.92c-61.013333 0-110.933333-49.92-111.786667-110.933333 0-61.013333 49.493333-110.506667 110.506667-110.506667 61.44 0 111.786667 49.493333 111.786667 110.506667 0 61.013333-49.493333 110.933333-110.506667 110.933333zM910.08 840.533333H420.693333c-3.413333 25.173333-12.373333 48.213333-26.026666 68.266667h515.413333c15.786667 0 28.586667-12.8 28.586667-28.586667v-11.093333c0-15.786667-12.8-28.586667-28.586667-28.586667z" fill="#6e4175" p-id="1965"></path><path d="M887.466667 115.2H213.333333c-28.16 0-51.2 23.04-51.2 51.2v12.8c11.093333-2.133333 22.186667-3.413333 33.706667-3.413333 98.986667 0 180.053333 80.213333 180.053333 178.773333 0 35.413333-10.24 68.693333-28.16 96.853333 28.16-1.706667 44.8-3.84 54.186667-5.546666L494.933333 318.293333c20.053333-29.013333 52.48-46.08 87.893334-46.08 20.906667 0 40.96 5.973333 58.453333 17.493334l2.133333 1.28L652.8 298.666667c22.186667 17.493333 36.693333 42.666667 39.68 71.253333 3.413333 27.733333-4.266667 55.04-20.906667 76.8-67.413333 92.586667-94.72 129.28-106.24 145.066667-11.946667 27.306667-37.973333 54.613333-70.4 63.146666l-1.28 0.426667-71.253333 17.066667V772.266667h277.333333c-14.08 0-25.6-11.52-25.6-25.6v-17.066667c0-14.08 11.52-25.6 25.6-25.6h145.066667c14.08 0 25.6 11.52 25.6 25.6v17.066667c0 14.08-11.52 25.6-25.6 25.6h42.666667c28.16 0 51.2-23.04 51.2-51.2V166.4c0-28.16-23.04-51.2-51.2-51.2z" fill="#6e4175" p-id="1966"></path><path d="M610.56 352.426667l-7.253333-5.546667c-6.4-4.266667-13.653333-6.4-20.906667-6.4-12.8 0-24.746667 6.4-32 17.066667l-104.106667 143.36c-6.826667 13.226667-79.786667 20.906667-216.746666 22.613333h-46.933334c-51.2 0-93.013333 41.813333-93.013333 93.013333V815.786667c0 51.2 41.813333 93.013333 93.013333 93.013333h78.506667c51.2 0 93.013333-41.813333 93.013333-93.013333V617.386667l123.733334-29.44c13.226667-3.413333 25.173333-20.906667 26.453333-29.44v-0.426667c1.706667-1.706667 73.813333-100.693333 112.213333-153.173333 13.226667-15.786667 10.24-39.68-5.973333-52.48z" fill="#6e4175" p-id="1967"></path></svg>