<?xml version="1.0" standalone="no"?><!DOCTYPE svg PUBLIC "-//W3C//DTD SVG 1.1//EN" "http://www.w3.org/Graphics/SVG/1.1/DTD/svg11.dtd"><svg t="1647595998297" class="icon" viewBox="0 0 1026 1024" version="1.1" xmlns="http://www.w3.org/2000/svg" p-id="2005" xmlns:xlink="http://www.w3.org/1999/xlink" width="128.25" height="128"><defs><style type="text/css"></style></defs><path d="M506.784 917.936V649.568a194.56 194.56 0 0 1-48.784 6.192c-107.008 0-193.744-86.72-193.744-193.728 0-107.024 86.72-193.776 193.728-193.776s193.76 86.752 193.76 193.776c0 23.296-4.128 45.632-11.664 66.336H912.704v-159.92h-113.072a359.744 359.744 0 0 0-32.912-80.112l80.816-81.184-134.352-134.528-80.4 80.752a358.032 358.032 0 0 0-80.208-33.328V5.2H363.2v115.504a350 350 0 0 0-78.928 32.576L203.104 72.448l-134.496 134.336 80.752 81.536a360 360 0 0 0-33.008 80.112H0v189.344h116.352a350.032 350.032 0 0 0 32.928 79.008l-80.848 80.624 134.336 134.24 81.536-80.896a349.84 349.84 0 0 0 78.928 32.512v114.656h143.552v0.016z" p-id="2006" fill="#6e4175"></path><path d="M994.608 1023.744h-388.48a32.384 32.384 0 0 1-32.368-32.368v-372.32c0-17.872 14.496-32.368 32.368-32.368h64.752v16.192c0 1.424 0.448 2.656 0.816 3.968-10.336 2.992-17.008 7.328-17.008 12.224 0 8.944 21.728 16.192 48.56 16.192 26.816 0 48.56-7.248 48.56-16.192 0-4.896-6.672-9.232-17.008-12.224 0.336-1.312 0.8-2.544 0.8-3.968v-16.192h129.504v16.192c0 1.424 0.48 2.656 0.816 3.968-10.336 2.992-17.008 7.328-17.008 12.224 0 8.944 21.744 16.192 48.56 16.192 26.832 0 48.56-7.248 48.56-16.192 0-4.896-6.672-9.232-17.008-12.224 0.352-1.312 0.816-2.544 0.816-3.968v-16.192h64.752c17.872 0 32.368 14.496 32.368 32.368v372.32a32.352 32.352 0 0 1-32.352 32.368z m-194.24-291.376a64.768 64.768 0 0 0-64.752-64.752 64.544 64.544 0 0 0-62.432 48.56h34.56a32.208 32.208 0 0 1 27.872-16.192 32.368 32.368 0 1 1 0 64.736c-4.048 0-24.96 0.928-42.384 16.192 17.44 15.264 38.336 16.192 42.384 16.192a32.368 32.368 0 1 1-32.352 32.368h-32.368a64.736 64.736 0 1 0 129.488 0 64.272 64.272 0 0 0-22.336-48.56 64.304 64.304 0 0 0 22.32-48.544z m113.312-32.368a16.16 16.16 0 0 0-16.192-16.192h-16.192c-8.944 0-16.192 7.232-16.192 16.192v178.064c0 8.928 7.248 16.192 16.192 16.192h16.192c8.96 0 16.192-7.264 16.192-16.192V700z m48.56 230.672c0-2.256-3.008-4.048-6.752-4.048h-310.24c-3.728 0-6.752 1.792-6.752 4.048v8.096c0 2.224 3.008 4.048 6.752 4.048h310.24c3.728 0 6.752-1.824 6.752-4.048v-8.096z m0 36.416a8.096 8.096 0 0 0-8.096-8.096H646.592a8.096 8.096 0 0 0-8.096 8.096v16.192c0 4.432 3.632 8.096 8.096 8.096H954.144a8.128 8.128 0 0 0 8.096-8.096v-16.192z m-80.944-396.592h32.368v48.56h-32.368v-48.56z m-194.224 0h32.368v48.56h-32.368v-48.56z" p-id="2007" fill="#6e4175"></path></svg>