<?xml version="1.0" standalone="no"?><!DOCTYPE svg PUBLIC "-//W3C//DTD SVG 1.1//EN" "http://www.w3.org/Graphics/SVG/1.1/DTD/svg11.dtd"><svg t="1647660704286" class="icon" viewBox="0 0 1024 1024" version="1.1" xmlns="http://www.w3.org/2000/svg" p-id="1058" xmlns:xlink="http://www.w3.org/1999/xlink" width="128" height="128"><defs><style type="text/css"></style></defs><path d="M100.60231111 204.15146667v615.70844444c0 16.24746667 13.17546667 29.42293333 29.42293334 29.42293334h763.93813333c16.24746667 0 29.42293333-13.17546667 29.42293333-29.42293334V204.15146667c0-16.24746667-13.17546667-29.42293333-29.42293333-29.42293334H130.02524445c-16.24746667 0-29.42293333 13.16408889-29.42293334 29.42293334z m751.21777778 137.81902222H422.61617778c-16.24746667 0-29.42293333-13.17546667-29.42293333-29.42293334v-66.2528c0-16.24746667 13.17546667-29.42293333 29.42293333-29.42293333h429.20391111c16.24746667 0 29.42293333 13.17546667 29.42293333 29.42293333v66.2528c0 16.24746667-13.16408889 29.42293333-29.42293333 29.42293334z m-500.77013334-95.67573334v66.2528c0 16.24746667-13.17546667 29.42293333-29.42293333 29.42293334H172.16853333c-16.24746667 0-29.42293333-13.17546667-29.42293333-29.42293334v-66.2528c0-16.24746667 13.17546667-29.42293333 29.42293333-29.42293333h149.45848889c16.24746667 0 29.42293333 13.16408889 29.42293333 29.42293333zM142.7456 777.70524445V411.21564445c0-16.24746667 13.17546667-29.42293333 29.42293333-29.42293334h679.65155556c16.24746667 0 29.42293333 13.17546667 29.42293333 29.42293334v366.50097777c0 16.24746667-13.17546667 29.42293333-29.42293333 29.42293333H172.16853333c-16.24746667-0.01137778-29.42293333-13.18684445-29.42293333-29.4343111z" fill="#6e4175" p-id="1059"></path><path d="M233.33546667 527.36h557.32906666c11.00231111 0 19.91111111-8.9088 19.91111112-19.91111111s-8.9088-19.91111111-19.91111112-19.91111111H233.33546667c-11.00231111 0-19.91111111 8.9088-19.91111112 19.91111111s8.9088 19.91111111 19.91111112 19.91111111zM790.66453333 655.88337778H233.33546667c-11.00231111 0-19.91111111 8.9088-19.91111112 19.91111111s8.9088 19.91111111 19.91111112 19.91111111h557.32906666c11.00231111 0 19.91111111-8.9088 19.91111112-19.91111111s-8.9088-19.91111111-19.91111112-19.91111111z" fill="#6e4175" p-id="1060"></path></svg>