<?xml version="1.0" standalone="no"?><!DOCTYPE svg PUBLIC "-//W3C//DTD SVG 1.1//EN" "http://www.w3.org/Graphics/SVG/1.1/DTD/svg11.dtd"><svg t="1647660921891" class="icon" viewBox="0 0 1024 1024" version="1.1" xmlns="http://www.w3.org/2000/svg" p-id="2229" xmlns:xlink="http://www.w3.org/1999/xlink" width="128" height="128"><defs><style type="text/css"></style></defs><path d="M753.6 222.4h24c19.2 0 33.6-14.4 33.6-32V57.6c0-19.2-14.4-33.6-33.6-33.6h-24c-19.2 0-33.6 14.4-33.6 33.6v131.2c-1.6 19.2 14.4 33.6 33.6 33.6zM251.2 222.4h24c19.2 0 33.6-14.4 33.6-32V57.6c0-19.2-14.4-33.6-33.6-33.6h-24c-19.2 0-33.6 14.4-33.6 33.6v131.2c-1.6 19.2 14.4 33.6 33.6 33.6z" fill="#6e4175" p-id="2230"></path><path d="M928 134.4h-68.8v56c0 41.6-33.6 76.8-80 76.8h-24c-43.2 0-80-33.6-80-76.8V134.4h-320v56c0 41.6-33.6 76.8-80 76.8h-24c-43.2 0-80-33.6-80-76.8V134.4H104c-38.4 0-68.8 28.8-68.8 67.2v731.2c0 38.4 30.4 67.2 68.8 67.2h820.8c38.4 0 68.8-28.8 70.4-67.2V201.6c1.6-38.4-28.8-67.2-67.2-67.2zM422.4 812.8v-137.6h190.4v116.8h-136v20.8h-54.4z m286.4-38.4c0 27.2-6.4 49.6-17.6 62.4-11.2 14.4-27.2 20.8-49.6 22.4h-70.4c-4.8-20.8-8-40-12.8-59.2 12.8 1.6 30.4 1.6 44.8 1.6 20.8 0 33.6-4.8 36.8-11.2 4.8-6.4 4.8-14.4 4.8-22.4V504h-99.2v28.8h76.8V576h-76.8v28.8h88v41.6H396.8v-41.6h88V576h-76.8v-41.6h76.8v-28.8h-99.2v145.6c0 96-17.6 169.6-51.2 219.2-17.6-14.4-33.6-28.8-51.2-41.6 27.2-40 43.2-100.8 41.6-184V454.4h384v320z" fill="#6e4175" p-id="2231"></path><path d="M478.4 715.2h76.8v35.2h-76.8z" fill="#6e4175" p-id="2232"></path></svg>